{"title":"Puss In Boots 2011 720p BDRip Dual Audio Hindi English x264 GOPI","uid":10090804,"size":491237516,"categoryP":"video","categoryS":"movies","magnet":"?xt=urn:btih:357d34c61c35c9b96a1dd2a5d893e26f35e7adda&amp;dn=Puss+In+Boots+2011+720p+BDRip+Dual+Audio+Hindi+English+x264+GOPI&amp;tr=udp%3A%2F%2Ftracker.openbittorrent.com%3A80&amp;tr=udp%3A%2F%2Fopen.demonii.com%3A1337&amp;tr=udp%3A%2F%2Ftracker.coppersurfer.tk%3A6969&amp;tr=udp%3A%2F%2Fexodus.desync.com%3A6969","seeders":0,"leechers":1,"uploader":"jatt13","files":1,"time":1399190914,"description":"Video\nID                             : 1\nFormat                         : AVC\nFormat/Info                    : Advanced Video Codec\nFormat profile                 : &lt;a class=&quot;__cf_email__&quot; href=&quot;/cdn-cgi/l/email-protection&quot; data-cfemail=&quot;490428202709057d6779&quot;&gt;[email&amp;#160;protected]&lt;/a&gt;&lt;script cf-hash='f9e31' type=&quot;text/javascript&quot;&gt;\n/* &lt;![CDATA[ */!function(){try{var t=&quot;currentScript&quot;in document?document.currentScript:function(){for(var t=document.getElementsByTagName(&quot;script&quot;),e=t.length;e--;)if(t[e].getAttribute(&quot;cf-hash&quot;))return t[e]}();if(t&amp;&amp;t.previousSibling){var e,r,n,i,c=t.previousSibling,a=c.getAttribute(&quot;data-cfemail&quot;);if(a){for(e=&quot;&quot;,r=parseInt(a.substr(0,2),16),n=2;a.length-n;n+=2)i=parseInt(a.substr(n,2),16)^r,e+=String.fromCharCode(i);e=document.createTextNode(e),c.parentNode.replaceChild(e,c)}}}catch(u){}}();/* ]]&gt; */&lt;/script&gt;\nFormat settings, CABAC         : Yes\nFormat settings, ReFrames      : 4 frames\nCodec ID                       : V_MPEG4/ISO/AVC\nDuration                       : 1h 30mn\nBit rate                       : 600 Kbps\nWidth                          : 1 280 pixels\nHeight                         : 544 pixels\nDisplay aspect ratio           : 2.35:1\nFrame rate mode                : Constant\nFrame rate                     : 23.976 fps\nColor space                    : YUV\nChroma subsampling             : 4:2:0\nBit depth                      : 8 bits\nScan type                      : Progressive\nBits/(Pixel*Frame)             : 0.036\nStream size                    : 377 MiB (80%)\nTitle                          : GOPI SAHI\nWriting library                : x264 core 130 r2273 b3065e6\nLanguage                       : English\nDefault                        : Yes\nForced                         : No\nColor primaries                : BT.709\nTransfer characteristics       : BT.709\nMatrix coefficients            : BT.709\n\nAudio #1\nID                             : 2\nFormat                         : MPEG Audio\nFormat version                 : Version 2\nFormat profile                 : Layer 3\nMode                           : Joint stereo\nMode extension                 : MS Stereo\nCodec ID                       : A_MPEG/L3\nCodec ID/Hint                  : MP3\nDuration                       : 1h 30mn\nBit rate mode                  : Constant\nBit rate                       : 64.0 Kbps\nChannel count                  : 2 channels\nSampling rate                  : 24.0 KHz\nCompression mode               : Lossy\nStream size                    : 41.3 MiB (9%)\nTitle                          : GOPI SAHI\nWriting library                : LAME3.96.1\nLanguage                       : Hindi\nDefault                        : Yes\nForced                         : No\n\nAudio #2\nID                             : 3\nFormat                         : MPEG Audio\nFormat version                 : Version 2\nFormat profile                 : Layer 3\nMode                           : Joint stereo\nMode extension                 : MS Stereo\nCodec ID                       : A_MPEG/L3\nCodec ID/Hint                  : MP3\nDuration                       : 1h 30mn\nBit rate mode                  : Constant\nBit rate                       : 64.0 Kbps\nChannel count                  : 2 channels\nSampling rate                  : 24.0 KHz\nCompression mode               : Lossy\nStream size                    : 41.3 MiB (9%)\nTitle                          : GOPI SAHI\nWriting library                : LAME3.96.1\nLanguage                       : English\nDefault                        : No\nForced                         : No\n[IMG]http://i.imgur.com/wDll97n.jpg[/IMG]\n[IMG]http://i.imgur.com/QhicPVS.jpg[/IMG]\n[IMG]http://i.imgur.com/sdBWlgS.jpg[/IMG]\n[IMG]http://i.imgur.com/FMfc3xy.jpg[/IMG]\n[IMG]http://i.imgur.com/t3vLmGg.jpg[/IMG]\n","torrent":{"xt":"urn:btih:357d34c61c35c9b96a1dd2a5d893e26f35e7adda","amp;dn":"Puss+In+Boots+2011+720p+BDRip+Dual+Audio+Hindi+English+x264+GOPI","amp;tr":["udp%3A%2F%2Ftracker.openbittorrent.com%3A80","udp%3A%2F%2Fopen.demonii.com%3A1337","udp%3A%2F%2Ftracker.coppersurfer.tk%3A6969","udp%3A%2F%2Fexodus.desync.com%3A6969"],"infoHash":"357d34c61c35c9b96a1dd2a5d893e26f35e7adda","infoHashBuffer":{"type":"Buffer","data":[53,125,52,198,28,53,201,185,106,29,210,165,216,147,226,111,53,231,173,218]},"announce":[],"urlList":[]}}